<?xml version="1.0" encoding="UTF-8"?>
<svg id="Layer_1" xmlns="http://www.w3.org/2000/svg" xmlns:xlink="http://www.w3.org/1999/xlink" version="1.1" viewBox="0 0 32 32">
  <!-- Generator: Adobe Illustrator 29.2.1, SVG Export Plug-In . SVG Version: 2.1.0 Build 116)  -->
  <defs>
    <style>
      .st0 {
        fill: none;
      }

      .st1 {
        fill: url(#linear-gradient1);
      }

      .st2 {
        fill: #c61d23;
      }

      .st2, .st3 {
        fill-rule: evenodd;
      }

      .st4 {
        fill: #231f20;
      }

      .st5 {
        fill: url(#linear-gradient);
      }

      .st3 {
        fill: #0a0203;
      }

      .st6 {
        clip-path: url(#clippath-1);
      }

      .st7 {
        clip-path: url(#clippath);
      }
    </style>
    <clipPath id="clippath">
      <path class="st0" d="M26.32,17.57c-1.93,3.59-5.72,6.03-10.08,6.03s-8.15-2.44-10.08-6.03h-.43c1.96,3.8,5.94,6.41,10.5,6.41s8.54-2.61,10.5-6.41h-.43Z"/>
    </clipPath>
    <linearGradient id="linear-gradient" x1="-44" y1="54.92" x2="-43.75" y2="54.92" gradientTransform="translate(4184.76 5238.09) scale(95 -95)" gradientUnits="userSpaceOnUse">
      <stop offset="0" stop-color="#fbc926"/>
      <stop offset="0" stop-color="#fbc926"/>
      <stop offset=".25" stop-color="#fffbcc"/>
      <stop offset=".3" stop-color="#f8efba"/>
      <stop offset=".41" stop-color="#e7d18d"/>
      <stop offset=".55" stop-color="#cca246"/>
      <stop offset=".6" stop-color="#c3922e"/>
      <stop offset=".87" stop-color="#eed688"/>
      <stop offset="1" stop-color="#fffbcc"/>
    </linearGradient>
    <clipPath id="clippath-1">
      <path class="st0" d="M4.89,7.26c-.43,1.23-.67,2.54-.67,3.91,0,.41.02.81.06,1.2h.38c-.04-.39-.06-.8-.06-1.2,0-1.37.24-2.69.69-3.91h-.4ZM26.78,7.26c.45,1.22.69,2.54.69,3.91,0,.41-.02.81-.06,1.2h.38c.04-.39.06-.8.06-1.2,0-1.37-.24-2.69-.67-3.91h-.4Z"/>
    </clipPath>
    <linearGradient id="linear-gradient1" x1="-44" y1="54.99" x2="-43.75" y2="54.99" gradientTransform="translate(4184.07 5234.26) scale(95.01 -95.01)" xlink:href="#linear-gradient"/>
  </defs>
  <path class="st2" d="M5.85,17.57c1.95,3.75,5.87,6.31,10.39,6.31s8.44-2.56,10.39-6.31H5.85Z"/>
  <path class="st2" d="M27.69,12.38c.04-.39.06-.8.06-1.2,0-1.37-.25-2.69-.68-3.91H5.01c-.43,1.23-.68,2.54-.68,3.91,0,.41.02.81.06,1.2h23.31Z"/>
  <g>
    <path class="st4" d="M3.44,12.95c.21.45.4.84.57,1.18.21.41.38.75.5,1.02.12.27.26.54.42.8.42-.7.91-1.7,1.47-3.01h1.22s.06.03.06.06-.02.05-.07.05c-.22.02-.36.06-.43.13-.07.07-.12.18-.13.34-.02.16-.04.46-.05.9-.02.44-.02.8-.02,1.09,0,.56,0,.89.01.98,0,.09.04.17.1.22.06.05.18.09.36.12.05,0,.08.03.08.06s-.03.05-.09.05h-1.19s-.31,0-.31,0c-.07,0-.1-.02-.1-.05,0-.03.02-.05.07-.05.17-.02.28-.05.34-.09.06-.04.1-.11.12-.22.03-.1.04-.37.04-.78l.06-1.47.03-.72c0-.05,0-.08-.02-.08-.02,0-.05.02-.06.05l-.61,1.2c-.39.76-.63,1.25-.71,1.47l-.19.46c-.06.14-.1.22-.11.23-.01.01-.03.02-.04.02-.02,0-.04-.03-.06-.08-.04-.13-.23-.53-.57-1.21-.18-.38-.39-.82-.64-1.31-.25-.49-.38-.74-.4-.76-.02-.02-.04-.03-.04-.03-.02,0-.03.02-.03.08l-.03,1.85v.61c0,.32.04.53.12.64.09.1.22.15.38.15.11,0,.16.02.16.07,0,.03-.03.05-.08.05h-.06s-.2,0-.2,0h-.43c-.19,0-.43,0-.72.03-.02-.02-.04-.03-.04-.05,0-.04.04-.06.11-.06.2,0,.35-.07.45-.2.1-.13.14-.42.14-.86v-.54s.04-1.36.04-1.36c0-.32-.05-.53-.14-.65-.09-.12-.23-.19-.41-.21-.08,0-.12-.03-.12-.06,0-.04.03-.05.09-.05.03,0,.07,0,.11,0l1.08.02Z"/>
    <path class="st4" d="M10.57,13.78c.05.18.09.44.14.77,0,.01-.02.02-.03.02-.01,0-.02,0-.04-.02-.11-.18-.22-.32-.32-.41-.1-.09-.21-.16-.31-.2-.1-.04-.28-.06-.53-.06-.24,0-.43.01-.56.04-.01.02-.02.05-.02.09,0,.01,0,.03,0,.06-.02.13-.02.48-.02,1.06,0,.03,0,.06,0,.1.12,0,.21,0,.25,0,.21,0,.35-.03.45-.09.09-.06.17-.19.24-.4.01-.03.03-.05.05-.05.03,0,.05.02.05.07v.1c-.02.13-.03.26-.03.4,0,.22,0,.42.01.6,0,.06-.02.08-.04.08-.02,0-.04-.02-.05-.06-.03-.19-.11-.33-.22-.42-.11-.08-.35-.13-.71-.13,0,.12,0,.31,0,.58,0,.34.01.56.04.65.03.09.08.17.18.22.09.05.25.08.47.08.63,0,1.04-.22,1.23-.65.02-.05.05-.08.07-.08.03,0,.04.02.04.05,0,.02,0,.04-.01.06,0,.03-.03.15-.07.35,0,.04-.04.17-.09.38h-1.02c-.15,0-.36,0-.65-.02-.28-.01-.54-.02-.75-.02-.22,0-.33,0-.34-.01,0,0-.02-.02-.02-.03,0-.03.03-.05.08-.05.18,0,.3-.05.36-.14.06-.1.09-.33.09-.7v-.5s0-.47,0-.47c0-.09,0-.27-.02-.54-.01-.26-.02-.41-.03-.45,0-.04-.03-.07-.08-.11-.04-.04-.13-.07-.28-.11-.04-.01-.06-.03-.06-.05,0-.03.03-.04.09-.04l.5.03c.18,0,.61.01,1.3.01.45,0,.68,0,.69,0"/>
    <path class="st4" d="M12.22,13.76h.5c.64-.01,1.12.14,1.45.46.33.31.49.7.49,1.17,0,.33-.08.62-.23.87-.16.25-.35.43-.59.56-.23.12-.55.19-.94.19-.09,0-.2,0-.33-.02-.24-.02-.38-.03-.41-.03-.53,0-.85,0-.94.02-.05,0-.08-.01-.08-.04,0-.02.01-.03.03-.04.02,0,.08-.02.18-.03.13-.02.22-.07.28-.16.05-.09.09-.36.1-.81l.04-1.29c0-.15,0-.29-.03-.43-.02-.14-.05-.23-.09-.27-.04-.04-.11-.07-.21-.08-.07-.01-.1-.03-.1-.06,0-.03.02-.05.05-.05s.13,0,.3.02c.17.01.35.02.55.02M12.13,16.12c0,.21.01.37.04.46.03.09.09.17.18.23.09.06.24.09.45.09.3,0,.54-.07.72-.21.18-.14.33-.33.43-.56.1-.23.15-.48.15-.74,0-.39-.12-.74-.35-1.05-.24-.32-.6-.47-1.1-.47-.22,0-.35,0-.39.02-.04.01-.05.06-.05.13,0,.06,0,.18-.02.34-.02.24-.03.42-.03.56l-.02.67c0,.31-.01.49-.01.54"/>
    <path class="st4" d="M15.21,13.73h.45s.68,0,.68,0c.08,0,.12.02.12.05,0,.02-.02.04-.07.05-.18.02-.29.09-.34.2-.05.11-.07.5-.07,1.19,0,.25,0,.54.02.85.01.32.03.51.04.57.02.06.05.11.09.15.05.04.13.07.25.08.04,0,.06.02.06.05,0,.03-.02.04-.06.04h-.61s-.52,0-.52,0c-.06,0-.09-.02-.09-.05s.02-.05.07-.05c.15,0,.24-.05.27-.15.03-.1.04-.41.04-.93s0-.92-.01-1.23c0-.32-.04-.51-.08-.58-.04-.07-.13-.11-.25-.13-.05,0-.07-.03-.07-.06s.02-.04.05-.04"/>
    <polygon class="st4" points="18.04 13.46 16.77 13.46 16.77 12.82 20.04 12.82 20.04 13.46 18.77 13.46 18.77 16.95 18.04 16.95 18.04 13.46"/>
    <polygon class="st4" points="20.45 13.41 22.8 13.41 22.8 13.96 21.08 13.96 21.08 14.86 22.71 14.86 22.71 15.39 21.08 15.39 21.08 16.39 22.89 16.39 22.89 16.95 20.45 16.95 20.45 13.41"/>
    <path class="st4" d="M26.06,14.24c-.09-.13-.21-.22-.36-.28-.15-.06-.3-.09-.44-.09-.18,0-.35.03-.5.1-.15.07-.28.16-.39.28-.11.12-.19.25-.25.41-.06.16-.09.33-.09.51,0,.19.03.37.09.53.06.16.14.3.24.41.1.12.23.2.38.27.15.06.31.1.5.1s.36-.04.5-.11c.15-.07.27-.18.36-.3l.51.36c-.16.2-.35.35-.58.46-.23.11-.49.16-.8.16-.28,0-.53-.05-.76-.14-.23-.09-.43-.22-.6-.38-.17-.17-.3-.36-.39-.59-.09-.23-.14-.48-.14-.76s.05-.54.15-.77c.1-.23.23-.42.4-.58.17-.16.38-.28.61-.37.23-.09.49-.13.76-.13.11,0,.23.01.36.03.12.02.24.05.36.1.11.05.22.1.32.17.1.07.18.15.26.24l-.48.38Z"/>
    <polygon class="st4" points="26.99 13.41 27.62 13.41 27.62 14.84 29.28 14.84 29.28 13.41 29.91 13.41 29.91 16.95 29.28 16.95 29.28 15.38 27.62 15.38 27.62 16.95 26.99 16.95 26.99 13.41"/>
  </g>
  <g class="st7">
    <rect class="st5" x="5.74" y="17.57" width="21.01" height="6.41"/>
  </g>
  <g class="st6">
    <rect class="st1" x="4.22" y="7.26" width="23.63" height="5.11"/>
  </g>
  <path class="st3" d="M26.94,17.57c-1.98,3.89-6.01,6.57-10.67,6.57s-8.69-2.68-10.67-6.57h-.67c2.02,4.23,6.33,7.17,11.34,7.17s9.31-2.93,11.34-7.17h-.67Z"/>
  <g>
    <path class="st3" d="M27.98,12.38h.6c.04-.4.06-.8.06-1.2,0-1.37-.23-2.68-.63-3.91h-.64c.43,1.23.67,2.54.67,3.91,0,.41-.02.81-.06,1.2Z"/>
    <path class="st3" d="M4.16,12.38c-.04-.39-.06-.8-.06-1.2,0-1.37.24-2.69.67-3.91h-.64c-.4,1.23-.63,2.55-.63,3.91,0,.41.02.81.06,1.2h.6Z"/>
  </g>
</svg>